<svg width="1512" height="238" viewBox="0 0 1512 238" fill="none" xmlns="http://www.w3.org/2000/svg">
<path d="M-38 106.801L10.0556 89.2953C58.1111 71.4608 154.222 36.9424 250.333 45.4076C346.444 54.2016 442.556 106.801 538.667 111.157C634.778 115.842 730.889 71.4608 827 80.5013C923.111 89.5419 1019.22 150.36 1115.33 137.457C1211.44 124.06 1307.56 36.9424 1403.67 10.3961C1499.78 -15.6571 1595.89 18.8613 1643.94 36.6958L1692 54.2016V212H1643.94C1595.89 212 1499.78 212 1403.67 212C1307.56 212 1211.44 212 1115.33 212C1019.22 212 923.111 212 827 212C730.889 212 634.778 212 538.667 212C442.556 212 346.444 212 250.333 212C154.222 212 58.1111 212 10.0556 212H-38V106.801Z" fill="#98C1D9"/>
</svg>
